<svg width="225" height="56" viewBox="0 0 225 56" fill="none" xmlns="http://www.w3.org/2000/svg"><g filter="url(#a)"><path fill="#EE3643" d="M0 0h224.68v56H0z"/></g><mask id="b" style="mask-type:alpha" maskUnits="userSpaceOnUse" x="0" y="0" width="225" height="56"><path fill="#EE3643" d="M0 0h224.68v56H0z"/></mask><g filter="url(#c)" mask="url(#b)"><path fill="#EE3643" d="M0 0h224.68v56H0z"/></g><path fill-rule="evenodd" clip-rule="evenodd" d="M162.23 16.27V33.9h-2.16V16.27h-3.84v-1.95h9.83v1.95h-3.83Zm-8.31 10.37c-.38.55-.85.94-1.42 1.17-.56.24-1.24.35-2.02.35a10.5 10.5 0 0 1-2.4-.28v6.02h-2.16V14.6a9.9 9.9 0 0 1 1.84-.44c.61-.08 1.28-.12 2-.12.96 0 1.77.11 2.44.35.68.23 1.22.62 1.64 1.16.41.54.71 1.26.9 2.15.2.9.3 2 .3 3.33 0 1.36-.1 2.5-.28 3.41a5.97 5.97 0 0 1-.84 2.2Zm-1.22-8.13c-.12-.67-.31-1.2-.57-1.6-.25-.38-.58-.66-.97-.82-.39-.16-.86-.24-1.4-.24h-1.68V26.2h1.68c.54 0 1.01-.07 1.4-.23.4-.16.72-.44.97-.83.26-.39.45-.92.57-1.6.12-.66.18-1.5.18-2.51 0-1-.06-1.85-.18-2.52Zm-12.17 10.35h-4.8l-1.08 5.04h-2.16l4.08-19.58h3.12l4.07 19.58h-2.15l-1.08-5.04Zm-2.35-11.75h-.1l-1.99 9.8h4.08l-2-9.8Zm-10.36 2.24h-.12l-3.48 12.03h-2.16l-3.47-12.03h-.12l-.72 14.55h-2.16l.96-19.58h2.64l3.9 13.42h.1l3.91-13.42h2.64l.96 19.58h-2.16l-.72-14.55ZM111.7 32.08a4 4 0 0 1-1.62 1.62c-.63.32-1.36.48-2.17.48-.82 0-1.54-.16-2.17-.48a4 4 0 0 1-1.62-1.62 9.48 9.48 0 0 1-1.02-3.1c-.23-1.29-.35-2.92-.35-4.87 0-1.96.12-3.59.35-4.88.23-1.3.57-2.33 1.02-3.1a4 4 0 0 1 1.62-1.62 4.77 4.77 0 0 1 2.17-.47c.81 0 1.54.15 2.17.47a4 4 0 0 1 1.62 1.62c.44.77.78 1.8 1.02 3.1.23 1.3.34 2.92.34 4.88 0 1.95-.11 3.58-.34 4.88a9.48 9.48 0 0 1-1.02 3.09Zm-1.05-12.11a11.05 11.05 0 0 0-.66-2.58 2.88 2.88 0 0 0-.96-1.31 2.02 2.02 0 0 0-1.12-.37c-.39 0-.76.13-1.13.37-.37.24-.69.68-.96 1.31-.27.64-.49 1.5-.66 2.58a27.84 27.84 0 0 0-.25 4.14c0 1.68.08 3.06.25 4.14.17 1.08.39 1.94.66 2.57.27.63.6 1.07.96 1.32.37.24.74.36 1.13.36.38 0 .76-.12 1.12-.36.37-.25.7-.69.96-1.32.28-.63.5-1.5.66-2.57.17-1.08.26-2.46.26-4.14 0-1.68-.09-3.06-.26-4.14Zm-12.93 4.98h-5.04v8.95h-2.16V14.32h2.16v8.67h5.04v-8.67h2.15V33.9h-2.15v-8.95Zm-11.4 8.95-2.99-8.4-3 8.4H78.2l3.6-10.07-3.24-9.51h2.15l2.64 7.83 2.64-7.83h2.16l-3.24 9.5 3.6 10.08h-2.16ZM68.72 14.32h8.16v1.95h-6v6.44h5.28v1.96h-5.28v7.27h6v1.96H68.7V14.32ZM62.96 33.9H60.8V16.27h-3.83v-1.95h9.83v1.95h-3.84V33.9Z" fill="#fff"/><defs><filter id="a" x="0" y="0" width="224.68" height="56" filterUnits="userSpaceOnUse" color-interpolation-filters="sRGB"><feFlood flood-opacity="0" result="BackgroundImageFix"/><feBlend in="SourceGraphic" in2="BackgroundImageFix" result="shape"/><feColorMatrix in="SourceAlpha" values="0 0 0 0 0 0 0 0 0 0 0 0 0 0 0 0 0 0 127 0" result="hardAlpha"/><feOffset dy="-5"/><feComposite in2="hardAlpha" operator="arithmetic" k2="-1" k3="1"/><feColorMatrix values="0 0 0 0 0 0 0 0 0 0 0 0 0 0 0 0 0 0 0.24 0"/><feBlend in2="shape" result="effect1_innerShadow_3604_1086"/></filter><filter id="c" x="0" y="0" width="224.68" height="56" filterUnits="userSpaceOnUse" color-interpolation-filters="sRGB"><feFlood flood-opacity="0" result="BackgroundImageFix"/><feBlend in="SourceGraphic" in2="BackgroundImageFix" result="shape"/><feColorMatrix in="SourceAlpha" values="0 0 0 0 0 0 0 0 0 0 0 0 0 0 0 0 0 0 127 0" result="hardAlpha"/><feOffset dy="-5"/><feComposite in2="hardAlpha" operator="arithmetic" k2="-1" k3="1"/><feColorMatrix values="0 0 0 0 0 0 0 0 0 0 0 0 0 0 0 0 0 0 0.24 0"/><feBlend in2="shape" result="effect1_innerShadow_3604_1086"/></filter></defs></svg>