<svg width="216" height="50" viewBox="0 0 216 50" fill="none" xmlns="http://www.w3.org/2000/svg">
<g filter="url(#filter0_i_850_8535)">
<rect width="216" height="50" fill="#EE3643"/>
</g>
<mask id="mask0_850_8535" style="mask-type:alpha" maskUnits="userSpaceOnUse" x="0" y="0" width="216" height="50">
<rect width="216" height="50" fill="#EE3643"/>
</mask>
<g mask="url(#mask0_850_8535)">
<g filter="url(#filter1_i_850_8535)">
<rect width="216" height="50" fill="#EE3643"/>
</g>
</g>
<path fill-rule="evenodd" clip-rule="evenodd" d="M155.959 14.5304V30.2658H153.885V14.5304H150.196V12.782H159.648V14.5304H155.959ZM147.972 23.7843C147.611 24.2755 147.158 24.6252 146.612 24.8333C146.066 25.0415 145.417 25.1455 144.664 25.1455C144.311 25.1455 143.911 25.1206 143.465 25.0706C143.02 25.0207 142.651 24.9624 142.359 24.8958V30.2658H140.284V13.0318C140.868 12.8486 141.456 12.7196 142.048 12.6446C142.639 12.5697 143.281 12.5322 143.973 12.5322C144.895 12.5322 145.678 12.6363 146.324 12.8444C146.969 13.0526 147.492 13.3981 147.891 13.881C148.291 14.3639 148.583 15.0049 148.767 15.8042C148.952 16.6035 149.044 17.5942 149.044 18.7764C149.044 19.992 148.956 21.0077 148.779 21.8236C148.602 22.6395 148.333 23.2931 147.972 23.7843ZM146.796 16.5285C146.681 15.9291 146.501 15.4545 146.255 15.1048C146.009 14.7552 145.698 14.5096 145.321 14.368C144.945 14.2265 144.495 14.1557 143.973 14.1557H142.359V23.3972H143.973C144.495 23.3972 144.945 23.3264 145.321 23.1849C145.698 23.0433 146.009 22.7977 146.255 22.448C146.501 22.0984 146.681 21.6238 146.796 21.0244C146.912 20.4249 146.969 19.6756 146.969 18.7764C146.969 17.8773 146.912 17.128 146.796 16.5285ZM135.098 25.77H130.488L129.45 30.2658H127.376L131.294 12.782H134.291L138.21 30.2658H136.135L135.098 25.77ZM132.839 15.2797H132.747L130.833 24.0216H134.752L132.839 15.2797ZM122.881 17.2778H122.765L119.423 28.0179H117.348L114.006 17.2778H113.891L113.199 30.2658H111.124L112.046 12.782H114.582L118.339 24.7709H118.432L122.189 12.782H124.725L125.647 30.2658H123.572L122.881 17.2778ZM107.39 28.6423C106.96 29.325 106.441 29.8079 105.834 30.091C105.227 30.374 104.532 30.5156 103.748 30.5156C102.964 30.5156 102.269 30.374 101.662 30.091C101.055 29.8079 100.536 29.325 100.106 28.6423C99.6755 27.9596 99.349 27.0396 99.1261 25.8824C98.9033 24.7251 98.7919 23.2723 98.7919 21.5239C98.7919 19.7755 98.9033 18.3227 99.1261 17.1654C99.349 16.0082 99.6755 15.0882 100.106 14.4055C100.536 13.7228 101.055 13.2399 101.662 12.9568C102.269 12.6738 102.964 12.5322 103.748 12.5322C104.532 12.5322 105.227 12.6738 105.834 12.9568C106.441 13.2399 106.96 13.7228 107.39 14.4055C107.82 15.0882 108.147 16.0082 108.37 17.1654C108.593 18.3227 108.704 19.7755 108.704 21.5239C108.704 23.2723 108.593 24.7251 108.37 25.8824C108.147 27.0396 107.82 27.9596 107.39 28.6423ZM106.387 17.8273C106.226 16.8616 106.015 16.0956 105.753 15.5295C105.492 14.9633 105.185 14.572 104.831 14.3555C104.478 14.1391 104.117 14.0308 103.748 14.0308C103.379 14.0308 103.018 14.1391 102.665 14.3555C102.311 14.572 102.004 14.9633 101.742 15.5295C101.481 16.0956 101.27 16.8616 101.109 17.8273C100.947 18.7931 100.867 20.0253 100.867 21.5239C100.867 23.0225 100.947 24.2547 101.109 25.2205C101.27 26.1863 101.481 26.9522 101.742 27.5184C102.004 28.0845 102.311 28.4758 102.665 28.6923C103.018 28.9087 103.379 29.017 103.748 29.017C104.117 29.017 104.478 28.9087 104.831 28.6923C105.185 28.4758 105.492 28.0845 105.753 27.5184C106.015 26.9522 106.226 26.1863 106.387 25.2205C106.549 24.2547 106.629 23.0225 106.629 21.5239C106.629 20.0253 106.549 18.7931 106.387 17.8273ZM93.9511 22.2732H89.1103V30.2658H87.0357V12.782H89.1103V20.5248H93.9511V12.782H96.0257V30.2658H93.9511V22.2732ZM83.0025 30.2658L80.121 22.7727L77.2396 30.2658H75.165L78.6227 21.2741L75.5108 12.782H77.5854L80.121 19.7755L82.6567 12.782H84.7313L81.6194 21.2741L85.0771 30.2658H83.0025ZM66.0597 12.782H73.8972V14.5304H68.1343V20.2751H73.2056V22.0234H68.1343V28.5174H73.8972V30.2658H66.0597V12.782ZM60.5274 30.2658H58.4527V14.5304H54.7645V12.782H64.2156V14.5304H60.5274V30.2658Z" fill="white"/>
<defs>
<filter id="filter0_i_850_8535" x="0" y="0" width="216" height="50" filterUnits="userSpaceOnUse" color-interpolation-filters="sRGB">
<feFlood flood-opacity="0" result="BackgroundImageFix"/>
<feBlend mode="normal" in="SourceGraphic" in2="BackgroundImageFix" result="shape"/>
<feColorMatrix in="SourceAlpha" type="matrix" values="0 0 0 0 0 0 0 0 0 0 0 0 0 0 0 0 0 0 127 0" result="hardAlpha"/>
<feOffset dy="-5"/>
<feComposite in2="hardAlpha" operator="arithmetic" k2="-1" k3="1"/>
<feColorMatrix type="matrix" values="0 0 0 0 0 0 0 0 0 0 0 0 0 0 0 0 0 0 0.24 0"/>
<feBlend mode="normal" in2="shape" result="effect1_innerShadow_850_8535"/>
</filter>
<filter id="filter1_i_850_8535" x="0" y="0" width="216" height="50" filterUnits="userSpaceOnUse" color-interpolation-filters="sRGB">
<feFlood flood-opacity="0" result="BackgroundImageFix"/>
<feBlend mode="normal" in="SourceGraphic" in2="BackgroundImageFix" result="shape"/>
<feColorMatrix in="SourceAlpha" type="matrix" values="0 0 0 0 0 0 0 0 0 0 0 0 0 0 0 0 0 0 127 0" result="hardAlpha"/>
<feOffset dy="-5"/>
<feComposite in2="hardAlpha" operator="arithmetic" k2="-1" k3="1"/>
<feColorMatrix type="matrix" values="0 0 0 0 0 0 0 0 0 0 0 0 0 0 0 0 0 0 0.24 0"/>
<feBlend mode="normal" in2="shape" result="effect1_innerShadow_850_8535"/>
</filter>
</defs>
</svg>
