<svg width="220" height="50" viewBox="0 0 220 50" fill="none" xmlns="http://www.w3.org/2000/svg"><g filter="url(#a)"><path fill="#EE3643" d="M0 0h220v50H0z"/></g><mask id="b" style="mask-type:alpha" maskUnits="userSpaceOnUse" x="0" y="0" width="220" height="50"><path fill="#EE3643" d="M0 0h220v50H0z"/></mask><g filter="url(#c)" mask="url(#b)"><path fill="#EE3643" d="M0 0h220v50H0z"/></g><path fill-rule="evenodd" clip-rule="evenodd" d="M158.85 14.53v15.74h-2.12V14.53h-3.75v-1.75h9.62v1.75h-3.75Zm-8.14 9.25c-.37.5-.83.85-1.38 1.05-.56.21-1.22.32-1.99.32a11.27 11.27 0 0 1-2.34-.25v5.37h-2.12V13.03c.6-.18 1.2-.31 1.8-.39.6-.07 1.25-.1 1.96-.1.94 0 1.74.1 2.4.3.65.21 1.18.56 1.59 1.04.4.48.7 1.12.9 1.92.18.8.27 1.8.27 2.98 0 1.21-.09 2.23-.27 3.04a5.06 5.06 0 0 1-.82 1.96Zm-1.2-7.25c-.11-.6-.3-1.08-.55-1.43a2 2 0 0 0-.95-.73 3.97 3.97 0 0 0-1.37-.21H145v9.24h1.64c.53 0 .99-.07 1.37-.22a2 2 0 0 0 .95-.73c.25-.35.44-.83.55-1.43.12-.6.18-1.34.18-2.24 0-.9-.06-1.65-.18-2.25Zm-11.91 9.24h-4.7l-1.05 4.5h-2.12l4-17.49h3.05l3.99 17.49h-2.11l-1.06-4.5Zm-2.3-10.49h-.1l-1.94 8.74h3.99l-1.95-8.74Zm-10.14 2h-.12l-3.4 10.74h-2.12l-3.4-10.74H116l-.7 12.99h-2.12l.94-17.49h2.58l3.83 12h.1l3.82-12h2.58l.94 17.49h-2.1l-.71-13Zm-15.78 11.36a3.76 3.76 0 0 1-1.59 1.45c-.61.28-1.32.43-2.12.43s-1.5-.15-2.13-.43a3.76 3.76 0 0 1-1.58-1.45 7.96 7.96 0 0 1-1-2.76 23.21 23.21 0 0 1-.34-4.36c0-1.74.11-3.2.34-4.35a7.96 7.96 0 0 1 1-2.76c.44-.69.97-1.17 1.58-1.45a5.06 5.06 0 0 1 2.13-.43c.8 0 1.5.14 2.12.43.62.28 1.15.76 1.59 1.45.44.68.77 1.6 1 2.76.22 1.15.34 2.6.34 4.35 0 1.75-.12 3.2-.34 4.36a7.98 7.98 0 0 1-1 2.76Zm-1.02-10.81a9.13 9.13 0 0 0-.65-2.3 2.6 2.6 0 0 0-.94-1.17 2.12 2.12 0 0 0-1.1-.33c-.38 0-.74.1-1.1.33-.36.21-.68.6-.94 1.17a9.13 9.13 0 0 0-.65 2.3c-.16.96-.25 2.2-.25 3.7s.09 2.72.25 3.69c.16.97.38 1.73.65 2.3.26.56.58.96.94 1.17.36.22.72.33 1.1.33.38 0 .74-.11 1.1-.33.36-.21.68-.6.94-1.17.27-.57.48-1.33.65-2.3.16-.97.24-2.2.24-3.7s-.08-2.73-.24-3.7Zm-12.67 4.44h-4.93v8h-2.11V12.78h2.11v7.74h4.93v-7.74h2.11v17.49h-2.1v-8Zm-11.15 8-2.94-7.5-2.93 7.5h-2.11l3.52-9-3.17-8.49h2.11l2.58 7 2.59-7h2.11l-3.17 8.5 3.52 8.99h-2.11ZM67.28 12.78h7.99v1.75H69.4v5.75h5.16v1.74H69.4v6.5h5.87v1.75h-7.99V12.78Zm-5.63 17.49h-2.11V14.53h-3.76v-1.75h9.62v1.75h-3.75v15.74Z" fill="#fff"/><defs><filter id="a" x="0" y="0" width="220" height="50" filterUnits="userSpaceOnUse" color-interpolation-filters="sRGB"><feFlood flood-opacity="0" result="BackgroundImageFix"/><feBlend in="SourceGraphic" in2="BackgroundImageFix" result="shape"/><feColorMatrix in="SourceAlpha" values="0 0 0 0 0 0 0 0 0 0 0 0 0 0 0 0 0 0 127 0" result="hardAlpha"/><feOffset dy="-5"/><feComposite in2="hardAlpha" operator="arithmetic" k2="-1" k3="1"/><feColorMatrix values="0 0 0 0 0 0 0 0 0 0 0 0 0 0 0 0 0 0 0.24 0"/><feBlend in2="shape" result="effect1_innerShadow_850_8535"/></filter><filter id="c" x="0" y="0" width="220" height="50" filterUnits="userSpaceOnUse" color-interpolation-filters="sRGB"><feFlood flood-opacity="0" result="BackgroundImageFix"/><feBlend in="SourceGraphic" in2="BackgroundImageFix" result="shape"/><feColorMatrix in="SourceAlpha" values="0 0 0 0 0 0 0 0 0 0 0 0 0 0 0 0 0 0 127 0" result="hardAlpha"/><feOffset dy="-5"/><feComposite in2="hardAlpha" operator="arithmetic" k2="-1" k3="1"/><feColorMatrix values="0 0 0 0 0 0 0 0 0 0 0 0 0 0 0 0 0 0 0.24 0"/><feBlend in2="shape" result="effect1_innerShadow_850_8535"/></filter></defs></svg>